<?xml version="1.0" encoding="utf-8"?>
<!-- Generator: Adobe Illustrator 22.1.0, SVG Export Plug-In . SVG Version: 6.00 Build 0)  -->
<svg version="1.1" id="Layer_1" xmlns="http://www.w3.org/2000/svg" xmlns:xlink="http://www.w3.org/1999/xlink" x="0px" y="0px"
	 viewBox="0 0 792 612" style="enable-background:new 0 0 792 612;" xml:space="preserve">
<style type="text/css">
	.st0{fill:#2B333E;}
	.st1{fill:#FFFFFF;}
</style>
<g>
	<polygon class="st1" points="214,481.2 256.6,481.2 256.6,492.9 282,492.9 282,481.2 461.9,481.2 461.9,492.9 487.3,492.9 
		487.3,481.2 530.6,481.2 530.6,465 214,465 	"/>
	<path class="st1" d="M282,349.7c0,7.8,6.3,14.1,14.1,14.1h11.1v14.5h-13.7V396c0,4.2,3.4,7.7,7.7,7.7h26.7c2.7,2.4,5.8,6,7.6,10.7
		c3.1,8.2,3.8,9.5,11.4,9.8v7.4c0,0-0.4,3.3,0,7.1v0.3h0c0.4,2.8,1.2,5.9,3,8.2H234.5v9.5h273.6v-9.5h-65.8c-8.3-2.8-20.3-6-30.3-6
		c-12.8,0.1-19.3,3.6-25.2,6h-20.3c-6.1-2.1-11.4-5.7-11.4-10v-13c7.7-0.4,8.4-1.6,11.5-9.8c1.8-4.7,5-8.3,7.6-10.7h21.1
		c4.2,0,7.7-3.4,7.7-7.7v-17.7h-8.2v-14.5h8.3c7.8,0,14.1-6.3,14.1-14.1v-14.4h161.5v-11.4H417.3v-19.2h31.9v0
		c16.8-0.1,33.4-1.5,48.9-8.4c15.5-6.9,29.1-18.4,37.8-33c8.1-13.7,11-29.4,10.8-45.2c-0.2-18.2-5.2-36.5-14.8-52
		c-17.6-28.2-50.2-46.5-83.4-47c-1.2,0-2.4,0-3.6,0C410.4,119.9,377,140,360,170c-9.2,16.4-13.7,35.1-15.3,53.8
		c-1.1,11.7-1.1,23.5-0.7,35.2h-47.9c-7.8,0-14.1,6.3-14.1,14.1V293c-4.3,0-8.7,0-13,0c-5.8,0-11.6,0-17.4,0c-4.9,0-9.9,0-14.8,0
		c-3.9,0-7.7,0-11.6,0c-2.6,0-5.2,0-7.7,0c-1.1,0-2.2,0-3.3,0c0,0-0.1,0-0.1,0v0.4h-0.9v11.3H282v19.2h-68.8v11.4H282V349.7z
		 M317.6,363.7h22.8v14.5h-22.8V363.7z M384.1,378.3h-22v-14.5h22V378.3z M362.7,229.6c0.5-16.8,3-33.8,10.4-48.9
		c10.7-22,31.9-38.5,55.8-43.8c23.9-5.3,50,0.6,69.3,15.6c19.4,14.9,31.7,38.6,33,63c1.2,21.2-6.5,43.6-22.6,57.9
		c-16.9,15-39.7,19.5-61.7,19.9h-11.6c-6,0-12-0.1-18-0.2v-20.1c0-7.8-6.3-14.1-14.1-14.1h-40.1
		C362.7,249.2,362.4,239.4,362.7,229.6z"/>
	<polygon class="st1" points="519.1,304.5 578.8,304.5 578.8,293 531.9,293 	"/>
</g>
</svg>
