<?xml version="1.0" encoding="utf-8"?>
<!-- Generator: Adobe Illustrator 22.1.0, SVG Export Plug-In . SVG Version: 6.00 Build 0)  -->
<svg version="1.1" id="Layer_1" xmlns="http://www.w3.org/2000/svg" xmlns:xlink="http://www.w3.org/1999/xlink" x="0px" y="0px"
	 viewBox="0 0 792 612" style="enable-background:new 0 0 792 612;" xml:space="preserve">
<style type="text/css">
	.st0{fill:#2B333E;}
	.st1{fill:#FFFFFF;}
</style>
<g>
	<polygon class="st1" points="116.8,435.5 159.4,435.5 159.4,447.1 184.8,447.1 184.8,435.5 364.7,435.5 364.7,447.1 390.1,447.1 
		390.1,435.5 433.4,435.5 433.4,419.2 116.8,419.2 	"/>
	<path class="st1" d="M184.8,304c0,7.8,6.3,14.1,14.1,14.1h11.1v14.5h-13.7v17.7c0,4.2,3.4,7.7,7.7,7.7h26.7c2.7,2.4,5.8,6,7.6,10.7
		c3.1,8.2,3.8,9.5,11.4,9.8v7.4c0,0-0.4,3.3,0,7.1v0.3h0c0.4,2.8,1.2,5.9,3,8.2H137.3v9.5h273.6v-9.5h-65.8c-8.3-2.8-20.3-6-30.3-6
		c-12.8,0.1-19.3,3.6-25.2,6h-20.3c-6.1-2.1-11.4-5.7-11.4-10v-13c7.7-0.4,8.4-1.6,11.5-9.8c1.8-4.7,5-8.3,7.6-10.7h21.1
		c4.2,0,7.7-3.4,7.7-7.7v-17.7h-8.2V318h8.3c7.8,0,14.1-6.3,14.1-14.1v-14.4h161.5v-11.4H320.1v-19.2h31.9v0
		c16.8-0.1,33.4-1.5,48.9-8.4c15.5-6.9,29.1-18.4,37.8-33c8.1-13.7,11-29.4,10.8-45.2c-0.2-18.2-5.2-36.5-14.8-52
		c-17.6-28.2-50.2-46.5-83.4-47c-1.2,0-2.4,0-3.6,0c-34.5,0.8-67.8,20.8-84.8,50.8c-9.2,16.4-13.7,35.1-15.3,53.8
		c-1.1,11.7-1.1,23.5-0.7,35.2h-47.9c-7.8,0-14.1,6.3-14.1,14.1v19.9c-4.3,0-8.7,0-13,0c-5.8,0-11.6,0-17.4,0c-4.9,0-9.9,0-14.8,0
		c-3.9,0-7.7,0-11.6,0c-2.6,0-5.2,0-7.7,0c-1.1,0-2.2,0-3.3,0c0,0-0.1,0-0.1,0v0.4h-0.9v11.3h68.8v19.2h-68.8v11.4h68.8V304z
		 M220.4,318h22.8v14.5h-22.8V318z M286.9,332.6h-22V318h22V332.6z M265.5,183.9c0.5-16.8,3-33.8,10.4-48.9
		c10.7-22,31.9-38.5,55.8-43.8c23.9-5.3,50,0.6,69.3,15.6c19.4,14.9,31.7,38.6,33,63c1.2,21.2-6.5,43.6-22.6,57.9
		c-16.9,15-39.7,19.5-61.7,19.9h-11.6c-6,0-12-0.1-18-0.2v-20.1c0-7.8-6.3-14.1-14.1-14.1h-40.1
		C265.6,203.5,265.2,193.7,265.5,183.9z"/>
	<polygon class="st1" points="421.9,258.7 481.6,258.7 481.6,247.2 434.7,247.2 	"/>
	<path class="st1" d="M236.4,475.8c-3.8-1.9-8.2-2.9-13.2-2.9c-6.1,0-11.5,1.4-16.2,4.2c-2.9,1.7-5.2,3.8-7.1,6.2
		c-1.5-2.5-3.4-4.5-5.8-6.1c-4.3-2.9-9.4-4.3-15.2-4.3c-5.1,0-9.7,1-13.7,3.1c-2.6,1.4-4.9,3.2-6.7,5.5v-7.9h-13.8v62.1h14.5v-31.5
		c0-4.2,0.7-7.6,2-10.3c1.4-2.7,3.3-4.8,5.7-6.2c2.4-1.4,5.2-2.1,8.4-2.1c4.5,0,7.9,1.4,10.3,4.1c2.4,2.7,3.6,6.8,3.6,12.3v33.7H204
		v-31.5c0-4.2,0.7-7.6,2-10.3c1.4-2.7,3.3-4.8,5.7-6.2c2.4-1.4,5.2-2.1,8.4-2.1c4.5,0,7.9,1.4,10.3,4.1c2.4,2.7,3.6,6.8,3.6,12.3
		v33.7h14.5v-35.6c0-6.3-1.1-11.4-3.3-15.4C243.2,480.7,240.2,477.7,236.4,475.8z"/>
	<path class="st1" d="M309.4,477c-5-2.7-10.7-4.1-17.1-4.1c-6.4,0-12,1.4-17,4.1c-5,2.7-8.9,6.5-11.7,11.2
		c-2.9,4.8-4.3,10.2-4.3,16.4c0,6.1,1.4,11.6,4.3,16.4c2.9,4.8,6.8,8.6,11.7,11.3c5,2.8,10.6,4.1,17,4.1c6.4,0,12.1-1.4,17.1-4.1
		c5-2.7,8.9-6.5,11.7-11.3c2.8-4.8,4.2-10.3,4.2-16.4c0-6.3-1.4-11.8-4.2-16.5C318.3,483.4,314.4,479.7,309.4,477z M308.3,515
		c-1.6,2.9-3.8,5.2-6.6,6.7c-2.8,1.6-6,2.3-9.5,2.3c-3.5,0-6.6-0.8-9.4-2.3c-2.8-1.5-4.9-3.8-6.6-6.7c-1.6-2.9-2.4-6.4-2.4-10.3
		c0-4,0.8-7.5,2.4-10.4s3.8-5.1,6.6-6.7c2.7-1.5,5.9-2.3,9.5-2.3c3.5,0,6.6,0.8,9.4,2.3c2.8,1.6,5,3.8,6.6,6.7
		c1.6,2.9,2.4,6.4,2.4,10.4C310.7,508.6,309.9,512,308.3,515z"/>
	<rect x="337.3" y="445.6" class="st1" width="14.5" height="90"/>
	<path class="st1" d="M417.6,479.7c-1.8-2.1-3.9-3.7-6.2-5.1c-4.2-2.3-9-3.5-14.3-3.5c-6.1,0-11.6,1.4-16.5,4.1
		c-4.9,2.7-8.7,6.5-11.5,11.4c-2.8,4.9-4.2,10.6-4.2,17.2c0,6.6,1.4,12.3,4.2,17.2c2.8,4.9,6.6,8.7,11.5,11.4
		c4.9,2.7,10.4,4.1,16.5,4.1c5.5,0,10.4-1.2,14.6-3.6c2.5-1.4,4.7-3.3,6.6-5.6v8.3h14.2V447h-14.8V479.7z M415.2,514.4
		c-1.7,3-4,5.3-6.8,6.9c-2.8,1.6-6,2.4-9.6,2.4c-3.6,0-6.8-0.8-9.6-2.4c-2.8-1.6-5.1-3.9-6.8-6.9c-1.7-3-2.6-6.6-2.6-10.6
		c0-4.1,0.9-7.7,2.6-10.7c1.7-3,4-5.3,6.8-6.9c2.8-1.6,6-2.4,9.6-2.4c3.6,0,6.8,0.8,9.6,2.4c2.8,1.6,5.1,3.9,6.8,6.9
		c1.7,3,2.6,6.6,2.6,10.7C417.8,507.8,417,511.3,415.2,514.4z"/>
	<path class="st1" d="M494.9,475c-5-2.8-10.8-4.2-17.2-4.2c-6.6,0-12.5,1.4-17.7,4.3c-5.2,2.9-9.2,6.9-12.2,12
		c-2.9,5.1-4.4,10.9-4.4,17.5c0,6.5,1.5,12.4,4.5,17.5c3,5.1,7.3,9.2,12.8,12.1c5.5,2.9,11.9,4.4,19.3,4.4c5.8,0,10.9-0.9,15.4-2.8
		c4.5-1.9,8.2-4.5,11.2-8l-8.3-9.5c-2.3,2.5-5,4.3-7.9,5.5c-3,1.2-6.3,1.7-10,1.7c-4.3,0-8.1-0.8-11.4-2.5c-3.3-1.7-5.9-4-7.7-7.1
		c-1.1-1.9-1.9-4-2.4-6.3h52c0.1-0.7,0.1-1.5,0.2-2.4c0-0.8,0.1-1.6,0.1-2.2c0-6.9-1.4-13-4.3-18.1C504,481.8,500,477.8,494.9,475z
		 M461,492.5c1.6-2.9,3.8-5.2,6.7-6.9c2.9-1.7,6.2-2.5,10-2.5c3.7,0,7,0.8,9.9,2.5c2.9,1.7,5.1,3.9,6.8,6.8c1.2,2,1.9,4.3,2.2,6.8
		h-37.7C459.2,496.8,459.9,494.5,461,492.5z"/>
	<path class="st1" d="M570.4,475c-5-2.8-10.8-4.2-17.2-4.2c-6.6,0-12.5,1.4-17.7,4.3c-5.2,2.9-9.2,6.9-12.2,12
		c-2.9,5.1-4.4,10.9-4.4,17.5c0,6.5,1.5,12.4,4.5,17.5c3,5.1,7.3,9.2,12.8,12.1c5.5,2.9,11.9,4.4,19.3,4.4c5.8,0,10.9-0.9,15.4-2.8
		c4.5-1.9,8.2-4.5,11.2-8l-8.3-9.5c-2.3,2.5-5,4.3-7.9,5.5c-3,1.2-6.3,1.7-10,1.7c-4.3,0-8.1-0.8-11.4-2.5c-3.3-1.7-5.9-4-7.7-7.1
		c-1.1-1.9-1.9-4-2.4-6.3h52c0.1-0.7,0.1-1.5,0.2-2.4c0-0.8,0.1-1.6,0.1-2.2c0-6.9-1.4-13-4.3-18.1
		C579.5,481.8,575.5,477.8,570.4,475z M536.5,492.5c1.6-2.9,3.8-5.2,6.7-6.9c2.9-1.7,6.2-2.5,10-2.5c3.7,0,7,0.8,9.9,2.5
		c2.9,1.7,5.1,3.9,6.8,6.8c1.2,2,1.9,4.3,2.2,6.8h-37.7C534.7,496.8,535.4,494.5,536.5,492.5z"/>
	<path class="st1" d="M597.2,527.9c-1.3,0-2.4,0.4-3.3,1.3c-0.9,0.9-1.4,2-1.4,3.5c0,1.4,0.5,2.5,1.4,3.4c0.9,0.9,2,1.4,3.3,1.4
		c1.3,0,2.4-0.5,3.3-1.4c0.9-0.9,1.4-2,1.4-3.4c0-1.5-0.5-2.6-1.4-3.5C599.6,528.3,598.5,527.9,597.2,527.9z"/>
	<path class="st1" d="M620,510.9c1.5-0.8,3.1-1.2,5-1.2c1.6,0,3.1,0.4,4.4,1.1c1.4,0.7,2.5,1.8,3.5,3.3l5.7-3.3
		c-1.2-2.4-3-4.3-5.4-5.5c-2.4-1.3-5.1-1.9-8.2-1.9c-3.3,0-6.3,0.7-8.9,2.1c-2.6,1.4-4.6,3.3-6.1,5.8c-1.5,2.4-2.2,5.3-2.2,8.5
		c0,3.1,0.7,6,2.2,8.4c1.5,2.5,3.5,4.4,6.1,5.8c2.6,1.4,5.6,2.1,8.9,2.1c3.1,0,5.8-0.6,8.2-1.9c2.4-1.3,4.2-3.1,5.4-5.5l-5.7-3.3
		c-1,1.5-2.1,2.6-3.5,3.3c-1.4,0.7-2.9,1.1-4.4,1.1c-1.8,0-3.5-0.4-5-1.2c-1.5-0.8-2.6-1.9-3.5-3.4c-0.8-1.5-1.3-3.3-1.3-5.3
		c0-2.1,0.4-3.9,1.3-5.3C617.4,512.8,618.5,511.7,620,510.9z"/>
	<path class="st1" d="M673.8,511.2c-1.5-2.4-3.5-4.3-6-5.7c-2.6-1.4-5.5-2.1-8.8-2.1c-3.3,0-6.2,0.7-8.7,2.1c-2.5,1.4-4.6,3.3-6,5.8
		c-1.5,2.4-2.2,5.3-2.2,8.5c0,3.1,0.7,6,2.2,8.4c1.5,2.5,3.5,4.4,6,5.8c2.5,1.4,5.5,2.1,8.7,2.1c3.3,0,6.2-0.7,8.8-2.1
		c2.6-1.4,4.6-3.4,6-5.8c1.5-2.5,2.2-5.3,2.2-8.4C675.9,516.4,675.2,513.6,673.8,511.2z M667.2,525c-0.8,1.5-1.9,2.7-3.4,3.5
		c-1.4,0.8-3.1,1.2-4.9,1.2c-1.8,0-3.4-0.4-4.8-1.2c-1.4-0.8-2.5-2-3.4-3.5c-0.8-1.5-1.3-3.3-1.3-5.3c0-2.1,0.4-3.9,1.3-5.3
		c0.8-1.5,2-2.6,3.4-3.4c1.4-0.8,3-1.2,4.9-1.2c1.8,0,3.4,0.4,4.8,1.2c1.4,0.8,2.6,1.9,3.4,3.4c0.8,1.5,1.2,3.3,1.2,5.3
		C668.4,521.7,668,523.5,667.2,525z"/>
</g>
</svg>
