<?xml version="1.0" encoding="utf-8"?>
<!-- Generator: Adobe Illustrator 22.1.0, SVG Export Plug-In . SVG Version: 6.00 Build 0)  -->
<svg version="1.1" id="Layer_1" xmlns="http://www.w3.org/2000/svg" xmlns:xlink="http://www.w3.org/1999/xlink" x="0px" y="0px"
	 viewBox="0 0 613.1 183.7" style="enable-background:new 0 0 613.1 183.7;" xml:space="preserve">
<style type="text/css">
	.st0{fill:#2B333E;}
	.st1{fill:#FFFFFF;}
</style>
<g>
	<path class="st1" d="M132.5,75.5c-3.8-1.9-8.2-2.9-13.2-2.9c-6.1,0-11.5,1.4-16.2,4.2c-2.9,1.7-5.2,3.8-7.1,6.2
		c-1.5-2.5-3.4-4.5-5.8-6.1c-4.3-2.9-9.4-4.3-15.2-4.3c-5.1,0-9.7,1-13.7,3.1c-2.6,1.4-4.9,3.2-6.7,5.5v-7.9H41v62.1h14.5v-31.5
		c0-4.2,0.7-7.6,2-10.3c1.4-2.7,3.3-4.8,5.7-6.2c2.4-1.4,5.2-2.1,8.4-2.1c4.5,0,7.9,1.4,10.3,4.1c2.4,2.7,3.6,6.8,3.6,12.3v33.7
		h14.5v-31.5c0-4.2,0.7-7.6,2-10.3c1.4-2.7,3.3-4.8,5.7-6.2c2.4-1.4,5.2-2.1,8.4-2.1c4.5,0,7.9,1.4,10.3,4.1
		c2.4,2.7,3.6,6.8,3.6,12.3v33.7h14.5V99.8c0-6.3-1.1-11.4-3.3-15.4C139.4,80.4,136.4,77.5,132.5,75.5z"/>
	<path class="st1" d="M205.5,76.7c-5-2.7-10.7-4.1-17.1-4.1c-6.4,0-12,1.4-17,4.1c-5,2.7-8.9,6.5-11.7,11.2
		c-2.9,4.8-4.3,10.2-4.3,16.4c0,6.1,1.4,11.6,4.3,16.4c2.9,4.8,6.8,8.6,11.7,11.3c5,2.8,10.6,4.1,17,4.1c6.4,0,12.1-1.4,17.1-4.1
		c5-2.7,8.9-6.5,11.7-11.3c2.8-4.8,4.2-10.3,4.2-16.4c0-6.3-1.4-11.8-4.2-16.5C214.4,83.1,210.5,79.4,205.5,76.7z M204.5,114.7
		c-1.6,2.9-3.8,5.2-6.6,6.7c-2.8,1.6-6,2.3-9.5,2.3c-3.5,0-6.6-0.8-9.4-2.3c-2.8-1.5-4.9-3.8-6.6-6.7c-1.6-2.9-2.4-6.4-2.4-10.3
		c0-4,0.8-7.5,2.4-10.4s3.8-5.1,6.6-6.7c2.7-1.5,5.9-2.3,9.5-2.3c3.5,0,6.6,0.8,9.4,2.3c2.8,1.6,5,3.8,6.6,6.7
		c1.6,2.9,2.4,6.4,2.4,10.4C206.9,108.3,206.1,111.8,204.5,114.7z"/>
	<rect x="233.5" y="45.4" class="st1" width="14.5" height="90"/>
	<path class="st1" d="M313.7,79.4c-1.8-2.1-3.9-3.7-6.2-5.1c-4.2-2.3-9-3.5-14.3-3.5c-6.1,0-11.6,1.4-16.5,4.1
		c-4.9,2.7-8.7,6.5-11.5,11.4c-2.8,4.9-4.2,10.6-4.2,17.2c0,6.6,1.4,12.3,4.2,17.2c2.8,4.9,6.6,8.7,11.5,11.4
		c4.9,2.7,10.4,4.1,16.5,4.1c5.5,0,10.4-1.2,14.6-3.6c2.5-1.4,4.7-3.3,6.6-5.6v8.3h14.2V46.7h-14.8V79.4z M311.4,114.1
		c-1.7,3-4,5.3-6.8,6.9c-2.8,1.6-6,2.4-9.6,2.4c-3.6,0-6.8-0.8-9.6-2.4c-2.8-1.6-5.1-3.9-6.8-6.9c-1.7-3-2.6-6.6-2.6-10.6
		c0-4.1,0.9-7.7,2.6-10.7c1.7-3,4-5.3,6.8-6.9c2.8-1.6,6-2.4,9.6-2.4c3.6,0,6.8,0.8,9.6,2.4c2.8,1.6,5.1,3.9,6.8,6.9
		c1.7,3,2.6,6.6,2.6,10.7C314,107.5,313.1,111.1,311.4,114.1z"/>
	<path class="st1" d="M391.1,74.7c-5-2.8-10.8-4.2-17.2-4.2c-6.6,0-12.5,1.4-17.7,4.3c-5.2,2.9-9.2,6.9-12.2,12
		c-2.9,5.1-4.4,10.9-4.4,17.5c0,6.5,1.5,12.4,4.5,17.5c3,5.1,7.3,9.2,12.8,12.1c5.5,2.9,11.9,4.4,19.3,4.4c5.8,0,10.9-0.9,15.4-2.8
		c4.5-1.9,8.2-4.5,11.2-8l-8.3-9.5c-2.3,2.5-5,4.3-7.9,5.5c-3,1.2-6.3,1.7-10,1.7c-4.3,0-8.1-0.8-11.4-2.5c-3.3-1.7-5.9-4-7.7-7.1
		c-1.1-1.9-1.9-4-2.4-6.3h52c0.1-0.7,0.1-1.5,0.2-2.4c0-0.8,0.1-1.6,0.1-2.2c0-6.9-1.4-13-4.3-18.1
		C400.1,81.5,396.2,77.5,391.1,74.7z M357.2,92.3c1.6-2.9,3.8-5.2,6.7-6.9c2.9-1.7,6.2-2.5,10-2.5c3.7,0,7,0.8,9.9,2.5
		c2.9,1.7,5.1,3.9,6.8,6.8c1.2,2,1.9,4.3,2.2,6.8H355C355.4,96.5,356.1,94.3,357.2,92.3z"/>
	<path class="st1" d="M466.6,74.7c-5-2.8-10.8-4.2-17.2-4.2c-6.6,0-12.5,1.4-17.7,4.3c-5.2,2.9-9.2,6.9-12.2,12
		c-2.9,5.1-4.4,10.9-4.4,17.5c0,6.5,1.5,12.4,4.5,17.5c3,5.1,7.3,9.2,12.8,12.1c5.5,2.9,11.9,4.4,19.3,4.4c5.8,0,10.9-0.9,15.4-2.8
		c4.5-1.9,8.2-4.5,11.2-8l-8.3-9.5c-2.3,2.5-5,4.3-7.9,5.5c-3,1.2-6.3,1.7-10,1.7c-4.3,0-8.1-0.8-11.4-2.5c-3.3-1.7-5.9-4-7.7-7.1
		c-1.1-1.9-1.9-4-2.4-6.3h52c0.1-0.7,0.1-1.5,0.2-2.4c0-0.8,0.1-1.6,0.1-2.2c0-6.9-1.4-13-4.3-18.1
		C475.6,81.5,471.7,77.5,466.6,74.7z M432.7,92.3c1.6-2.9,3.8-5.2,6.7-6.9c2.9-1.7,6.2-2.5,10-2.5c3.7,0,7,0.8,9.9,2.5
		c2.9,1.7,5.1,3.9,6.8,6.8c1.2,2,1.9,4.3,2.2,6.8h-37.7C430.9,96.5,431.6,94.3,432.7,92.3z"/>
	<path class="st1" d="M493.4,127.6c-1.3,0-2.4,0.4-3.3,1.3c-0.9,0.9-1.4,2-1.4,3.5c0,1.4,0.5,2.5,1.4,3.4c0.9,0.9,2,1.4,3.3,1.4
		c1.3,0,2.4-0.5,3.3-1.4c0.9-0.9,1.4-2,1.4-3.4c0-1.5-0.5-2.6-1.4-3.5C495.8,128,494.7,127.6,493.4,127.6z"/>
	<path class="st1" d="M516.1,110.6c1.5-0.8,3.1-1.2,5-1.2c1.6,0,3.1,0.4,4.4,1.1c1.4,0.7,2.5,1.8,3.5,3.3l5.7-3.3
		c-1.2-2.4-3-4.3-5.4-5.5c-2.4-1.3-5.1-1.9-8.2-1.9c-3.3,0-6.3,0.7-8.9,2.1c-2.6,1.4-4.6,3.3-6.1,5.8c-1.5,2.4-2.2,5.3-2.2,8.5
		c0,3.1,0.7,6,2.2,8.4c1.5,2.5,3.5,4.4,6.1,5.8c2.6,1.4,5.6,2.1,8.9,2.1c3.1,0,5.8-0.6,8.2-1.9c2.4-1.3,4.2-3.1,5.4-5.5l-5.7-3.3
		c-1,1.5-2.1,2.6-3.5,3.3c-1.4,0.7-2.9,1.1-4.4,1.1c-1.8,0-3.5-0.4-5-1.2c-1.5-0.8-2.6-1.9-3.5-3.4c-0.8-1.5-1.3-3.3-1.3-5.3
		c0-2.1,0.4-3.9,1.3-5.3C513.5,112.5,514.7,111.4,516.1,110.6z"/>
	<path class="st1" d="M569.9,110.9c-1.5-2.4-3.5-4.3-6-5.7c-2.6-1.4-5.5-2.1-8.8-2.1c-3.3,0-6.2,0.7-8.7,2.1c-2.5,1.4-4.6,3.3-6,5.8
		c-1.5,2.4-2.2,5.3-2.2,8.5c0,3.1,0.7,6,2.2,8.4c1.5,2.5,3.5,4.4,6,5.8c2.5,1.4,5.5,2.1,8.7,2.1c3.3,0,6.2-0.7,8.8-2.1
		c2.6-1.4,4.6-3.4,6-5.8c1.5-2.5,2.2-5.3,2.2-8.4C572.1,116.2,571.4,113.3,569.9,110.9z M563.4,124.7c-0.8,1.5-1.9,2.7-3.4,3.5
		c-1.4,0.8-3.1,1.2-4.9,1.2c-1.8,0-3.4-0.4-4.8-1.2c-1.4-0.8-2.5-2-3.4-3.5c-0.8-1.5-1.3-3.3-1.3-5.3c0-2.1,0.4-3.9,1.3-5.3
		c0.8-1.5,2-2.6,3.4-3.4c1.4-0.8,3-1.2,4.9-1.2c1.8,0,3.4,0.4,4.8,1.2c1.4,0.8,2.6,1.9,3.4,3.4c0.8,1.5,1.2,3.3,1.2,5.3
		C564.6,121.4,564.2,123.2,563.4,124.7z"/>
</g>
</svg>
